<svg width="570" height="457" viewBox="0 0 570 457" fill="none" xmlns="http://www.w3.org/2000/svg">
<path d="M51.9161 242.124C33.8457 242.124 8.10909 234.676 0.333345 228.324C-0.32376 226.682 -0.455181 226.42 4.27598 238.51C10.1899 253.624 28.9174 272.68 43.0452 282.208C57.173 291.736 71.9578 292.065 101.199 284.836C130.44 277.608 123.869 256.909 160.01 256.252C196.151 255.595 195.494 286.151 189.58 301.264C183.432 316.976 178.08 322.949 155.41 322.949C144.554 322.949 137.668 318.458 132.083 316.049C131.973 316.377 136.261 324.307 139.311 327.548C155.082 344.304 170.852 350.547 193.194 354.49C215.535 358.432 237.877 338.719 247.734 327.548C257.59 316.377 277.632 315.392 279.275 315.392C297.523 315.392 310.159 350.547 283.217 362.375C261.664 371.837 245.762 367.413 240.505 364.018C238.863 362.484 235.446 360.338 234.92 364.018C234.263 368.617 252.333 389.644 262.847 395.887C273.361 402.129 292.417 407.058 314.101 404.758C335.786 402.458 376.526 381.431 387.368 372.231C398.211 363.032 406.753 358.432 420.224 336.747C433.694 315.063 437.965 305.535 448.479 258.223C458.993 210.912 425.48 163.272 413.981 142.573C402.482 121.874 348.599 89.0186 320.344 85.7331C292.088 82.4476 265.475 82.4476 237.877 90.9899C210.279 99.5323 165.595 131.074 172.166 129.76C222.632 124.766 240.615 150.02 242.148 163.272C237.22 161.41 224.252 156.722 211.593 153.744C166.91 143.23 135.684 159.242 120.584 178.714C95.6137 210.912 80.6565 242.124 51.9161 242.124Z" fill="#ED5E0B"/>
<path d="M217.142 234.19C206.862 234.19 192.221 229.945 187.798 226.325C187.424 225.388 187.349 225.239 190.041 232.131C193.405 240.745 204.059 251.607 212.095 257.038C220.132 262.47 228.349 269.395 246.091 266.109C262.941 262.989 276.318 251.982 315.63 221.426C331.866 208.807 369.842 225.922 369.842 254.939C369.842 282.209 364.048 295.992 348.722 302.734C336.461 308.127 327.415 305.605 324.424 303.67C323.49 302.796 321.546 301.573 321.247 303.67C320.873 306.292 331.153 318.278 337.134 321.836C343.114 325.394 353.955 328.203 366.29 326.892C378.626 325.581 401.802 313.596 407.97 308.352C414.138 303.108 418.997 300.486 426.66 288.126C434.323 275.766 436.753 270.335 442.734 243.367C448.715 216.399 429.651 189.244 423.109 177.446C416.567 165.648 385.915 146.92 369.842 145.047C353.768 143.174 338.629 143.174 322.929 148.044C307.229 152.913 288.503 167.733 285.548 170.142C264.161 187.585 264.795 186.947 256.205 198.047C242 216.4 233.491 234.19 217.142 234.19Z" fill="white" style="mix-blend-mode:soft-light"/>
<rect x="389.414" y="265.445" width="132.288" height="93.8528" fill="white"/>
<mask id="path-3-outside-1_4025_787" maskUnits="userSpaceOnUse" x="339.086" y="0" width="231" height="458" fill="black">
<rect fill="white" x="339.086" width="231" height="458"/>
<path fill-rule="evenodd" clip-rule="evenodd" d="M454.367 11C451.279 11 448.583 12.6777 447.14 15.1712H436.192C436.192 18.9559 439.26 22.024 443.045 22.024H446.024V49.7329H441.853C435.6 49.7329 430.531 54.8019 430.531 61.0548V75.6541H430.233C426.942 75.6541 424.274 78.322 424.274 81.613V95.6165C424.274 98.9075 426.942 101.575 430.233 101.575H429.339V209.432H426.36C420.107 209.432 415.038 214.501 415.038 220.753V235.353H405.206C398.953 235.353 393.884 240.422 393.884 246.675V255.911H374.815C368.562 255.911 363.493 260.98 363.493 267.233V359.298H361.408C355.155 359.298 350.086 364.367 350.086 370.62V446H394.182V390.88C394.182 384.627 399.251 379.558 405.504 379.558H426.956C433.209 379.558 438.278 384.627 438.278 390.88V446H454.367V209.432V101.575V75.6541V49.7329V11ZM397.757 280.64C397.757 278.172 399.758 276.171 402.226 276.171H412.654C415.123 276.171 417.124 278.172 417.124 280.64V349.466H397.757V280.64ZM429.041 280.64C429.041 278.172 431.042 276.171 433.511 276.171H443.939C446.407 276.171 448.408 278.172 448.408 280.64V349.466H429.041V280.64Z"/>
<path d="M454.367 11C457.455 11 460.151 12.6777 461.593 15.1713H472.542C472.542 18.9559 469.474 22.024 465.689 22.024H462.709V49.7329H454.367V11Z"/>
<path d="M478.202 61.0548C478.202 54.8019 473.133 49.7329 466.881 49.7329L454.367 49.7329V75.6541L454.367 75.6541V101.575H454.367V209.432L479.394 209.432V101.575H478.519C481.802 101.566 484.46 98.9014 484.46 95.6165V81.613C484.46 78.322 481.792 75.6541 478.501 75.6541L478.202 75.6542V61.0548Z"/>
<path fill-rule="evenodd" clip-rule="evenodd" d="M493.696 220.754C493.696 214.501 488.627 209.432 482.374 209.432L454.367 209.432V446H470.456V390.88C470.456 384.627 475.525 379.558 481.778 379.558H503.23C509.483 379.558 514.552 384.627 514.552 390.88V446L558.648 446V370.62C558.648 364.367 553.579 359.298 547.326 359.298L545.24 359.298V267.233C545.24 260.98 540.171 255.911 533.918 255.911H514.85V246.675C514.85 240.422 509.781 235.353 503.528 235.353L493.696 235.353V220.754ZM460.326 349.466V280.64C460.326 278.172 462.327 276.171 464.795 276.171H475.223C477.691 276.171 479.692 278.172 479.692 280.64V349.466H460.326ZM491.61 280.64C491.61 278.172 493.611 276.171 496.079 276.171H506.507C508.975 276.171 510.976 278.172 510.976 280.64V349.466H491.61V280.64Z"/>
</mask>
<path fill-rule="evenodd" clip-rule="evenodd" d="M454.367 11C451.279 11 448.583 12.6777 447.14 15.1712H436.192C436.192 18.9559 439.26 22.024 443.045 22.024H446.024V49.7329H441.853C435.6 49.7329 430.531 54.8019 430.531 61.0548V75.6541H430.233C426.942 75.6541 424.274 78.322 424.274 81.613V95.6165C424.274 98.9075 426.942 101.575 430.233 101.575H429.339V209.432H426.36C420.107 209.432 415.038 214.501 415.038 220.753V235.353H405.206C398.953 235.353 393.884 240.422 393.884 246.675V255.911H374.815C368.562 255.911 363.493 260.98 363.493 267.233V359.298H361.408C355.155 359.298 350.086 364.367 350.086 370.62V446H394.182V390.88C394.182 384.627 399.251 379.558 405.504 379.558H426.956C433.209 379.558 438.278 384.627 438.278 390.88V446H454.367V209.432V101.575V75.6541V49.7329V11ZM397.757 280.64C397.757 278.172 399.758 276.171 402.226 276.171H412.654C415.123 276.171 417.124 278.172 417.124 280.64V349.466H397.757V280.64ZM429.041 280.64C429.041 278.172 431.042 276.171 433.511 276.171H443.939C446.407 276.171 448.408 278.172 448.408 280.64V349.466H429.041V280.64Z" fill="#FBFBFB"/>
<path d="M454.367 11C457.455 11 460.151 12.6777 461.593 15.1713H472.542C472.542 18.9559 469.474 22.024 465.689 22.024H462.709V49.7329H454.367V11Z" fill="#FBFBFB"/>
<path d="M478.202 61.0548C478.202 54.8019 473.133 49.7329 466.881 49.7329L454.367 49.7329V75.6541L454.367 75.6541V101.575H454.367V209.432L479.394 209.432V101.575H478.519C481.802 101.566 484.46 98.9014 484.46 95.6165V81.613C484.46 78.322 481.792 75.6541 478.501 75.6541L478.202 75.6542V61.0548Z" fill="#FBFBFB"/>
<path fill-rule="evenodd" clip-rule="evenodd" d="M493.696 220.754C493.696 214.501 488.627 209.432 482.374 209.432L454.367 209.432V446H470.456V390.88C470.456 384.627 475.525 379.558 481.778 379.558H503.23C509.483 379.558 514.552 384.627 514.552 390.88V446L558.648 446V370.62C558.648 364.367 553.579 359.298 547.326 359.298L545.24 359.298V267.233C545.24 260.98 540.171 255.911 533.918 255.911H514.85V246.675C514.85 240.422 509.781 235.353 503.528 235.353L493.696 235.353V220.754ZM460.326 349.466V280.64C460.326 278.172 462.327 276.171 464.795 276.171H475.223C477.691 276.171 479.692 278.172 479.692 280.64V349.466H460.326ZM491.61 280.64C491.61 278.172 493.611 276.171 496.079 276.171H506.507C508.975 276.171 510.976 278.172 510.976 280.64V349.466H491.61V280.64Z" fill="#FBFBFB"/>
<path d="M454.367 101.575H448.867V209.432H454.367H459.867V101.575H454.367ZM454.367 49.7329H448.867V75.6541H454.367H459.867V49.7329H454.367ZM454.367 11H448.867V49.7329H454.367H459.867V11H454.367ZM454.367 446H459.867V209.432H454.367H448.867V446H454.367ZM447.14 15.1712V26.1712H453.485L456.662 20.6792L447.14 15.1712ZM436.192 15.1712V4.17123H425.192V15.1712H436.192ZM446.024 22.024H457.024V11.024H446.024V22.024ZM446.024 49.7329V60.7329H457.024V49.7329H446.024ZM430.531 75.6541V86.6541H441.531V75.6541H430.531ZM429.339 101.575V90.5754H418.339V101.575H429.339ZM429.339 209.432V220.432H440.339V209.432H429.339ZM415.038 235.353V246.353H426.038V235.353H415.038ZM393.884 255.911V266.911H404.884V255.911H393.884ZM363.493 359.298V370.298H374.493V359.298H363.493ZM350.086 446H339.086V457H350.086V446ZM394.182 446V457H405.182V446H394.182ZM438.278 446H427.278V457H438.278V446ZM454.367 101.575H443.367V112.575H454.367V101.575ZM454.367 75.6541L454.453 64.6545L443.367 64.5678V75.6541H454.367ZM417.124 349.466V360.466H428.124V349.466H417.124ZM397.757 349.466H386.757V360.466H397.757V349.466ZM448.408 349.466V360.466H459.408V349.466H448.408ZM429.041 349.466H418.041V360.466H429.041V349.466ZM461.593 15.1713L452.071 20.6792L455.248 26.1713H461.593V15.1713ZM472.542 15.1713H483.542V4.17126H472.542V15.1713ZM462.709 22.024V11.024H451.709V22.024H462.709ZM462.709 49.7329V60.7329H473.709V49.7329H462.709ZM466.881 49.7329L466.881 60.7329H466.881V49.7329ZM454.367 75.6541H465.367V64.7397L454.453 64.6545L454.367 75.6541ZM454.367 101.575V112.575H465.367V101.575H454.367ZM479.394 209.432L479.394 220.432L490.394 220.431V209.432H479.394ZM479.394 101.575H490.394V90.5753H479.394V101.575ZM478.519 101.575L478.486 90.5754L478.519 112.575V101.575ZM478.501 75.6541L478.501 64.6541L478.5 64.6541L478.501 75.6541ZM478.202 75.6542H467.202V86.6553L478.204 86.6542L478.202 75.6542ZM482.374 209.432L482.374 220.432H482.374V209.432ZM470.456 446V457H481.456V446H470.456ZM514.552 446H503.552V457L514.552 457L514.552 446ZM558.648 446L558.648 457L569.648 457V446H558.648ZM547.326 359.298L547.326 370.298H547.326V359.298ZM545.24 359.298H534.24V370.298L545.24 370.298L545.24 359.298ZM514.85 255.911H503.85V266.911H514.85V255.911ZM503.528 235.353L503.528 224.353L503.528 224.353L503.528 235.353ZM493.696 235.353H482.696V246.353L493.696 246.353L493.696 235.353ZM460.326 349.466H449.326V360.466H460.326V349.466ZM479.692 349.466V360.466H490.692V349.466H479.692ZM510.976 349.466V360.466H521.976V349.466H510.976ZM491.61 349.466H480.61V360.466H491.61V349.466ZM447.14 15.1712L456.662 20.6792C456.219 21.4448 455.364 22 454.367 22V11V0C447.193 0 440.947 3.91048 437.619 9.66324L447.14 15.1712ZM436.192 15.1712V26.1712H447.14V15.1712V4.17123H436.192V15.1712ZM443.045 22.024V11.024C445.335 11.024 447.192 12.8808 447.192 15.1712H436.192H425.192C425.192 25.031 433.185 33.024 443.045 33.024V22.024ZM446.024 22.024V11.024H443.045V22.024V33.024H446.024V22.024ZM446.024 49.7329H457.024V22.024H446.024H435.024V49.7329H446.024ZM441.853 49.7329V60.7329H446.024V49.7329V38.7329H441.853V49.7329ZM430.531 61.0548H441.531C441.531 60.9901 441.542 60.9561 441.552 60.9329C441.565 60.9023 441.588 60.8643 441.625 60.8272C441.663 60.7901 441.701 60.7666 441.731 60.7537C441.754 60.7438 441.788 60.7329 441.853 60.7329V49.7329V38.7329C429.525 38.7329 419.531 48.7267 419.531 61.0548H430.531ZM430.531 75.6541H441.531V61.0548H430.531H419.531V75.6541H430.531ZM430.233 75.6541V86.6541H430.531V75.6541V64.6541H430.233V75.6541ZM424.274 81.613H435.274C435.274 84.3972 433.017 86.6541 430.233 86.6541V75.6541V64.6541C420.867 64.6541 413.274 72.2469 413.274 81.613H424.274ZM424.274 95.6165H435.274V81.613H424.274H413.274V95.6165H424.274ZM430.233 101.575V90.5754C433.017 90.5754 435.274 92.8323 435.274 95.6165H424.274H413.274C413.274 104.983 420.867 112.575 430.233 112.575V101.575ZM429.339 101.575V112.575H430.233V101.575V90.5754H429.339V101.575ZM429.339 209.432H440.339V101.575H429.339H418.339V209.432H429.339ZM429.339 209.432V198.432H426.36V209.432V220.432H429.339V209.432ZM426.36 209.432V198.432C414.032 198.432 404.038 208.425 404.038 220.753H415.038H426.038C426.038 220.689 426.049 220.655 426.059 220.632C426.072 220.601 426.095 220.563 426.132 220.526C426.169 220.489 426.207 220.465 426.238 220.452C426.261 220.443 426.295 220.432 426.36 220.432V209.432ZM415.038 220.753H404.038V235.353H415.038H426.038V220.753H415.038ZM415.038 235.353V224.353H405.206V235.353V246.353H415.038V235.353ZM405.206 235.353V224.353C392.878 224.353 382.884 234.347 382.884 246.675H393.884H404.884C404.884 246.61 404.895 246.576 404.905 246.553C404.918 246.522 404.941 246.484 404.978 246.447C405.015 246.41 405.053 246.386 405.084 246.374C405.107 246.364 405.141 246.353 405.206 246.353V235.353ZM393.884 246.675H382.884V255.911H393.884H404.884V246.675H393.884ZM393.884 255.911V244.911H374.815V255.911V266.911H393.884V255.911ZM374.815 255.911V244.911C362.487 244.911 352.493 254.905 352.493 267.233H363.493H374.493C374.493 267.168 374.504 267.134 374.514 267.111C374.527 267.08 374.551 267.042 374.588 267.005C374.625 266.968 374.663 266.945 374.693 266.932C374.717 266.922 374.751 266.911 374.815 266.911V255.911ZM363.493 267.233H352.493V359.298H363.493H374.493V267.233H363.493ZM363.493 359.298V348.298H361.408V359.298V370.298H363.493V359.298ZM361.408 359.298V348.298C349.08 348.298 339.086 358.292 339.086 370.62H350.086H361.086C361.086 370.555 361.097 370.521 361.107 370.498C361.12 370.467 361.143 370.429 361.18 370.392C361.217 370.355 361.255 370.332 361.286 370.319C361.309 370.309 361.343 370.298 361.408 370.298V359.298ZM350.086 370.62H339.086V446H350.086H361.086V370.62H350.086ZM350.086 446V457H394.182V446V435H350.086V446ZM394.182 446H405.182V390.88H394.182H383.182V446H394.182ZM394.182 390.88H405.182C405.182 390.815 405.193 390.782 405.203 390.758C405.216 390.728 405.239 390.69 405.276 390.653C405.313 390.615 405.351 390.592 405.382 390.579C405.405 390.569 405.439 390.558 405.504 390.558V379.558V368.558C393.176 368.558 383.182 378.552 383.182 390.88H394.182ZM405.504 379.558V390.558H426.956V379.558V368.558H405.504V379.558ZM426.956 379.558V390.558C427.021 390.558 427.055 390.569 427.078 390.579C427.108 390.592 427.146 390.615 427.183 390.653C427.221 390.69 427.244 390.728 427.257 390.758C427.267 390.782 427.278 390.815 427.278 390.88H438.278H449.278C449.278 378.552 439.284 368.558 426.956 368.558V379.558ZM438.278 390.88H427.278V446H438.278H449.278V390.88H438.278ZM438.278 446V457H454.367V446V435H438.278V446ZM454.367 75.6541H443.367V101.575H454.367H465.367V75.6541H454.367ZM402.226 276.171V265.171C393.683 265.171 386.757 272.097 386.757 280.64H397.757H408.757C408.757 284.247 405.833 287.171 402.226 287.171V276.171ZM412.654 276.171V265.171H402.226V276.171V287.171H412.654V276.171ZM417.124 280.64H428.124C428.124 272.097 421.198 265.171 412.654 265.171V276.171V287.171C409.048 287.171 406.124 284.247 406.124 280.64H417.124ZM417.124 349.466H428.124V280.64H417.124H406.124V349.466H417.124ZM397.757 349.466V360.466H417.124V349.466V338.466H397.757V349.466ZM397.757 280.64H386.757V349.466H397.757H408.757V280.64H397.757ZM433.511 276.171V265.171C424.967 265.171 418.041 272.097 418.041 280.64H429.041H440.041C440.041 284.247 437.117 287.171 433.511 287.171V276.171ZM443.939 276.171V265.171H433.511V276.171V287.171H443.939V276.171ZM448.408 280.64H459.408C459.408 272.097 452.482 265.171 443.939 265.171V276.171V287.171C440.332 287.171 437.408 284.247 437.408 280.64H448.408ZM448.408 349.466H459.408V280.64H448.408H437.408V349.466H448.408ZM429.041 349.466V360.466H448.408V349.466V338.466H429.041V349.466ZM429.041 280.64H418.041V349.466H429.041H440.041V280.64H429.041ZM461.593 15.1713L471.115 9.66332C467.787 3.91061 461.54 0 454.367 0V11V22C453.369 22 452.514 21.4447 452.071 20.6792L461.593 15.1713ZM472.542 15.1713V4.17126H461.593V15.1713V26.1713H472.542V15.1713ZM465.689 22.024V33.024C475.549 33.024 483.542 25.0311 483.542 15.1713H472.542H461.542C461.542 12.8808 463.399 11.024 465.689 11.024V22.024ZM462.709 22.024V33.024H465.689V22.024V11.024H462.709V22.024ZM462.709 49.7329H473.709V22.024H462.709H451.709V49.7329H462.709ZM454.367 49.7329V60.7329H462.709V49.7329V38.7329H454.367V49.7329ZM466.881 49.7329V60.7329C466.945 60.7329 466.979 60.7439 467.002 60.7537C467.033 60.7666 467.071 60.7901 467.108 60.8272C467.145 60.8643 467.169 60.9024 467.182 60.9329C467.192 60.9561 467.202 60.9901 467.202 61.0548H478.202H489.202C489.202 48.7268 479.209 38.7329 466.881 38.7329V49.7329ZM454.367 49.7329L454.367 60.7329L466.881 60.7329L466.881 49.7329L466.881 38.7329L454.367 38.7329L454.367 49.7329ZM454.367 75.6541L454.453 64.6545L454.453 64.6545L454.367 75.6541L454.281 86.6538L454.281 86.6538L454.367 75.6541ZM454.367 101.575H465.367V75.6541H454.367H443.367V101.575H454.367ZM454.367 101.575V90.5754H454.367V101.575V112.575H454.367V101.575ZM454.367 209.432L454.367 220.432L479.394 220.432L479.394 209.432L479.394 198.432L454.367 198.432L454.367 209.432ZM479.394 209.432H490.394V101.575H479.394H468.394V209.432H479.394ZM479.394 101.575V90.5753H478.519V101.575V112.575H479.394V101.575ZM484.46 95.6165H473.46C473.46 92.8373 475.708 90.5837 478.486 90.5754L478.519 101.575L478.552 112.575C487.895 112.547 495.46 104.966 495.46 95.6165H484.46ZM484.46 81.613H473.46V95.6165H484.46H495.46V81.613H484.46ZM478.501 75.6541V86.6541C475.717 86.6541 473.46 84.3971 473.46 81.613H484.46H495.46C495.46 72.2469 487.867 64.6541 478.501 64.6541V75.6541ZM478.202 75.6542L478.204 86.6542L478.502 86.6541L478.501 75.6541L478.5 64.6541L478.201 64.6542L478.202 75.6542ZM478.202 61.0548H467.202V75.6542H478.202H489.202V61.0548H478.202ZM482.374 209.432V220.432C482.439 220.432 482.473 220.443 482.496 220.452C482.526 220.465 482.564 220.489 482.601 220.526C482.639 220.563 482.662 220.601 482.675 220.632C482.685 220.655 482.696 220.689 482.696 220.754H493.696H504.696C504.696 208.425 494.702 198.432 482.374 198.432V209.432ZM454.367 209.432L454.367 220.432L482.374 220.432L482.374 209.432L482.374 198.432L454.367 198.432L454.367 209.432ZM470.456 446V435H454.367V446V457H470.456V446ZM470.456 390.88H459.456V446H470.456H481.456V390.88H470.456ZM481.778 379.558V368.558C469.45 368.558 459.456 378.552 459.456 390.88H470.456H481.456C481.456 390.815 481.467 390.782 481.477 390.758C481.49 390.728 481.513 390.69 481.55 390.653C481.587 390.615 481.625 390.592 481.656 390.579C481.679 390.569 481.713 390.558 481.778 390.558V379.558ZM503.23 379.558V368.558H481.778V379.558V390.558H503.23V379.558ZM514.552 390.88H525.552C525.552 378.552 515.558 368.558 503.23 368.558V379.558V390.558C503.295 390.558 503.329 390.569 503.352 390.579C503.382 390.592 503.42 390.615 503.457 390.653C503.495 390.69 503.518 390.728 503.531 390.758C503.541 390.782 503.552 390.815 503.552 390.88H514.552ZM514.552 446H525.552V390.88H514.552H503.552V446H514.552ZM558.648 446L558.648 435L514.552 435L514.552 446L514.552 457L558.648 457L558.648 446ZM558.648 370.62H547.648V446H558.648H569.648V370.62H558.648ZM547.326 359.298V370.298C547.39 370.298 547.424 370.309 547.448 370.319C547.478 370.332 547.516 370.355 547.553 370.392C547.59 370.429 547.614 370.467 547.627 370.498C547.637 370.521 547.648 370.555 547.648 370.62H558.648H569.648C569.648 358.292 559.654 348.298 547.326 348.298V359.298ZM545.24 359.298L545.24 370.298L547.326 370.298L547.326 359.298L547.326 348.298L545.24 348.298L545.24 359.298ZM545.24 267.233H534.24V359.298H545.24H556.24V267.233H545.24ZM533.918 255.911V266.911C533.983 266.911 534.017 266.922 534.04 266.932C534.071 266.945 534.109 266.968 534.146 267.005C534.183 267.042 534.206 267.08 534.219 267.111C534.229 267.134 534.24 267.168 534.24 267.233H545.24H556.24C556.24 254.905 546.246 244.911 533.918 244.911V255.911ZM514.85 255.911V266.911H533.918V255.911V244.911H514.85V255.911ZM514.85 246.675H503.85V255.911H514.85H525.85V246.675H514.85ZM503.528 235.353V246.353C503.592 246.353 503.626 246.364 503.65 246.374C503.68 246.386 503.718 246.41 503.755 246.447C503.792 246.484 503.816 246.522 503.829 246.553C503.839 246.576 503.85 246.61 503.85 246.675H514.85H525.85C525.85 234.347 515.856 224.353 503.528 224.353V235.353ZM493.696 235.353L493.696 246.353L503.528 246.353L503.528 235.353L503.528 224.353L493.696 224.353L493.696 235.353ZM493.696 220.754H482.696V235.353H493.696H504.696V220.754H493.696ZM460.326 280.64H449.326V349.466H460.326H471.326V280.64H460.326ZM464.795 276.171V265.171C456.251 265.171 449.326 272.097 449.326 280.64H460.326H471.326C471.326 284.247 468.402 287.171 464.795 287.171V276.171ZM475.223 276.171V265.171H464.795V276.171V287.171H475.223V276.171ZM479.692 280.64H490.692C490.692 272.097 483.766 265.171 475.223 265.171V276.171V287.171C471.616 287.171 468.692 284.247 468.692 280.64H479.692ZM479.692 349.466H490.692V280.64H479.692H468.692V349.466H479.692ZM460.326 349.466V360.466H479.692V349.466V338.466H460.326V349.466ZM496.079 276.171V265.171C487.536 265.171 480.61 272.097 480.61 280.64H491.61H502.61C502.61 284.247 499.686 287.171 496.079 287.171V276.171ZM506.507 276.171V265.171H496.079V276.171V287.171H506.507V276.171ZM510.976 280.64H521.976C521.976 272.097 515.051 265.171 506.507 265.171V276.171V287.171C502.9 287.171 499.976 284.247 499.976 280.64H510.976ZM510.976 349.466H521.976V280.64H510.976H499.976V349.466H510.976ZM491.61 349.466V360.466H510.976V349.466V338.466H491.61V349.466ZM491.61 280.64H480.61V349.466H491.61H502.61V280.64H491.61Z" fill="#361804" mask="url(#path-3-outside-1_4025_787)"/>
</svg>
